# xmcd CD database file
#
# Track frame offsets:
#	150
#	15580
#	33220
#	49107
#	69430
#	85357
#	109325
#	129967
#	142027
#	152930
#	166930
#	181777
#	197807
#	221065
#
# Disc length: 3141 seconds
#
# Revision: 0
# Processed by: cddbd v1.5.1PL0 Copyright (c) Steve Scherf et al.
# Submitted via: CDex 1.51
#
DISCID=c00c430e
DTITLE=Miles Davis - Miles Ahead
DYEAR=1957
DGENRE=Jazz
TTITLE0=Springsville
TTITLE1=The Maids Of Cadiz
TTITLE2=The Duke
TTITLE3=My Ship
TTITLE4=Miles Ahead
TTITLE5=Blues For Pablo
TTITLE6=New Rhumba
TTITLE7=The Meaning Of The Blues
TTITLE8=Lament
TTITLE9=I Don't Wanna Be Kissed (By Anyone But You)
TTITLE10=Springsville (Alternate Take)
TTITLE11=Blues For Pablo (Alternate Take)
TTITLE12=The Meaning Of The Blues/Lament (Alternate Take)
TTITLE13=I Don't Wanna Be Kissed (By Anyone But You) (Alternate Take)
EXTD=YEAR: 1957
EXTT0=
EXTT1=
EXTT2=
EXTT3=
EXTT4=
EXTT5=
EXTT6=
EXTT7=
EXTT8=
EXTT9=
EXTT10=
EXTT11=
EXTT12=
EXTT13=
PLAYORDER=
